#!OML:ASF X:\für Bonn\!DataBase\2005_08_12_Daniel\c3d\Daniel.ASF
:FULLY-SPECIFIED
:DEGREES
3676
root 1.33725 17.5497 0.232626 -1034.39 -86.2967 -51.5988
lowerback 7.65064 -1.10625 3.35142
upperback -0.0160472 -1.2095 -0.575305
thorax -4.39304 -0.681855 -2.34404
lowerneck 1.70007 1.67642 -2.25431
upperneck 8.54215 2.09412 0.378094
head 2.3658 0.923198 0.530823
rclavicle 8.27441e-015 3.97569e-015
rhumerus -18.4175 17.9024 -10.5754
rradius 19.9657
rwrist -23.6192
rhand -17.9802 -0.852479
rfingers 7.12502
rthumb 8.28945 -30.6698
lclavicle 8.27441e-015 3.97569e-015
lhumerus -21.8112 20.2776 -4.91466
lradius 16.2032
lwrist -7.97177
lhand -22.3723 12.0214
lfingers 7.12502
lthumb 4.04929 41.9627
rfemur 3.19517 16.6208 21.231
rtibia 22.0365
rfoot -24.7574 -19.7069
rtoes -15.5316
lfemur -3.17401 -11.504 -16.5785
ltibia 35.528
lfoot -26.977 11.365
ltoes -15.3851
3677
root 1.33785 17.5499 0.232631 -1034.29 -86.3013 -51.7016
lowerback 7.65814 -1.10272 3.3377
upperback -0.017997 -1.20556 -0.571775
thorax -4.39865 -0.67968 -2.33298
lowerneck 1.7128 1.67342 -2.2495
upperneck 8.52989 2.09014 0.372632
head 2.35961 0.921382 0.527961
rclavicle 6.65929e-015 -5.96354e-015
rhumerus -18.4008 17.6895 -10.5241
rradius 19.9431
rwrist -23.3979
rhand -17.972 -0.852275
rfingers 7.12502
rthumb 8.29739 -30.6693
lclavicle 6.65929e-015 -5.96354e-015
lhumerus -21.7962 20.6216 -4.97329
lradius 16.1729
lwrist -8.32524
lhand -22.3599 12.0217
lfingers 7.12502
lthumb 4.06128 41.9628
rfemur 3.18962 16.6226 21.2296
rtibia 22.0345
rfoot -24.7488 -19.703
rtoes -15.5326
lfemur -3.16983 -11.5545 -16.5931
ltibia 35.5263
lfoot -26.9837 11.4203
ltoes -15.3786
3678
root 1.33871 17.5499 0.232775 -1034.11 -86.3143 -51.8825
lowerback 7.67871 -1.10497 3.32587
upperback -0.0276181 -1.20854 -0.568169
thorax -4.42011 -0.681301 -2.32185
lowerneck 1.7183 1.67353 -2.27388
upperneck 8.53659 2.08911 0.385463
head 2.36054 0.920243 0.536133
rclavicle 2.43511e-015 -3.18055e-015
rhumerus -18.3782 17.6291 -10.5021
rradius 19.9321
rwrist -23.3184
rhand -17.9975 -0.854855
rfingers 7.12502
rthumb 8.27272 -30.6729
lclavicle 2.43511e-015 -3.18055e-015
lhumerus -21.7995 20.6016 -4.97198
lradius 16.1712
lwrist -8.32515
lhand -22.3539 12.0197
lfingers 7.12502
lthumb 4.06704 41.9606
rfemur 3.18514 16.6322 21.2249
rtibia 22.034
rfoot -24.7402 -19.6972
rtoes -15.535
lfemur -3.16599 -11.5463 -16.5976
ltibia 35.5241
lfoot -26.9841 11.4292
ltoes -15.3776
3679
root 1.33964 17.5503 0.232633 -1033.95 -86.3188 -52.023
lowerback 7.67469 -1.10136 3.32645
upperback -0.0234736 -1.20428 -0.57687
thorax -4.41345 -0.679154 -2.33181
lowerneck 1.71118 1.66427 -2.25357
upperneck 8.52874 2.07703 0.386719
head 2.35953 0.91512 0.532939
rclavicle -9.44227e-016 -1.19271e-014
rhumerus -18.3557 17.323 -10.4752
rradius 19.8795
rwrist -23.0522
rhand -18.0068 -0.799009
rfingers 7.12502
rthumb 8.26376 -30.6174
lclavicle -9.44227e-016 -1.19271e-014
lhumerus -21.7758 20.8507 -5.02057
lradius 16.1579
lwrist -8.57266
lhand -22.2946 11.9792
lfingers 7.12502
lthumb 4.12433 41.919
rfemur 3.16889 16.6502 21.2273
rtibia 22.034
rfoot -24.7379 -19.7066
rtoes -15.5338
lfemur -3.17889 -11.533 -16.589
ltibia 35.5215
lfoot -26.9796 11.4253
ltoes -15.3776
3680
root 1.34045 17.5505 0.232785 -1033.86 -86.3234 -52.121
lowerback 7.68367 -1.10636 3.31842
upperback -0.0187099 -1.21133 -0.573453
thorax -4.41374 -0.682399 -2.32283
lowerneck 1.68323 1.67241 -2.27567
upperneck 8.5352 2.0884 0.397194
head 2.36624 0.920412 0.540561
rclavicle -2.75814e-015 1.27222e-014
rhumerus -18.3332 17.3407 -10.4801
rradius 19.8893
rwrist -23.145
rhand -18.1187 -0.789857
rfingers 7.12502
rthumb 8.15573 -30.6125
lclavicle -2.75814e-015 1.27222e-014
lhumerus -21.7825 20.9207 -5.03415
lradius 16.1583
lwrist -8.66578
lhand -22.1921 11.9965
lfingers 7.12502
lthumb 4.22331 41.9344
rfemur 3.16248 16.6429 21.2222
rtibia 22.0345
rfoot -24.7266 -19.6938
rtoes -15.5367
lfemur -3.17897 -11.5313 -16.59
ltibia 35.5195
lfoot -26.9768 11.4313
ltoes -15.3767
3681
root 1.34167 17.5508 0.232467 -1033.84 -86.3222 -52.1381
lowerback 7.69723 -1.11157 3.31405
upperback -0.0230997 -1.21816 -0.57471
thorax -4.42634 -0.685947 -2.32064
lowerneck 1.68364 1.67069 -2.27273
upperneck 8.54045 2.08712 0.378659
head 2.36812 0.919241 0.53421
rclavicle 1.86361e-015 6.75868e-015
rhumerus -18.3411 17.3489 -10.4943
rradius 19.9046
rwrist -23.1793
rhand -18.2683 -0.756332
rfingers 7.12502
rthumb 8.01139 -30.5845
lclavicle 1.86361e-015 6.75868e-015
lhumerus -21.7852 21.185 -5.0965
lradius 16.1422
lwrist -8.94941
lhand -22.0838 11.91
lfingers 7.12502
lthumb 4.32785 41.8458
rfemur 3.15177 16.6136 21.2159
rtibia 22.0333
rfoot -24.7067 -19.6708
rtoes -15.5437
lfemur -3.18712 -11.5141 -16.5793
ltibia 35.5177
lfoot -26.9681 11.4136
ltoes -15.3784
3682
root 1.3431 17.551 0.232611 -1033.49 -86.3374 -52.4903
lowerback 7.71531 -1.09783 3.31989
upperback -0.0266858 -1.1989 -0.580504
thorax -4.43924 -0.676852 -2.33192
lowerneck 1.69681 1.66269 -2.27307
upperneck 8.52792 2.07556 0.387336
head 2.36169 0.913882 0.536585
rclavicle 8.69683e-015 3.57812e-015
rhumerus -18.3334 17.0444 -10.4745
rradius 19.8618
rwrist -22.9749
rhand -18.3595 -0.684105
rfingers 7.12502
rthumb 7.92336 -30.5156
lclavicle 8.69683e-015 3.57812e-015
lhumerus -21.7297 21.2534 -5.08413
lradius 16.1298
lwrist -9.05778
lhand -21.9674 11.8615
lfingers 7.12502
lthumb 4.44028 41.7949
rfemur 3.13765 16.6099 21.2102
rtibia 22.0342
rfoot -24.6837 -19.6462
rtoes -15.5501
lfemur -3.18578 -11.5024 -16.5778
ltibia 35.5158
lfoot -26.9674 11.4273
ltoes -15.3762
3683
root 1.34411 17.5513 0.23247 -1033.48 -86.3372 -52.4964
lowerback 7.72222 -1.10549 3.30792
upperback -0.0214699 -1.20988 -0.575929
thorax -4.43804 -0.681916 -2.31908
lowerneck 1.6644 1.6634 -2.28999
upperneck 8.55334 2.07742 0.386939
head 2.37575 0.913954 0.539968
rclavicle 9.64106e-015 0
rhumerus -18.3315 17.1286 -10.4963
rradius 19.9016
rwrist -23.199
rhand -18.535 -0.616907
rfingers 7.12502
rthumb 7.75398 -30.4547
lclavicle 9.64106e-015 0
lhumerus -21.7313 21.2688 -5.0826
lradius 16.1452
lwrist -9.06986
lhand -21.8814 11.8662
lfingers 7.12502
lthumb 4.52333 41.7979
rfemur 3.13212 16.6277 21.2145
rtibia 22.0359
rfoot -24.7025 -19.6608
rtoes -15.6198
lfemur -3.19163 -11.4973 -16.5738
ltibia 35.5131
lfoot -26.9602 11.4221
ltoes -15.3765
3684
root 1.34497 17.5513 0.232614 -1033.29 -86.3501 -52.682
lowerback 7.7328 -1.09953 3.30679
upperback -0.0221402 -1.20215 -0.586747
thorax -4.4444 -0.678296 -2.33045
lowerneck 1.66722 1.65828 -2.28941
upperneck 8.54603 2.06957 0.402671
head 2.37279 0.910619 0.544646
rclavicle 3.55328e-015 6.36111e-015
rhumerus -18.3478 17.0434 -10.5268
rradius 19.914
rwrist -23.2447
rhand -18.7336 -0.529593
rfingers 7.12502
rthumb 7.56229 -30.3744
lclavicle 3.55328e-015 6.36111e-015
lhumerus -21.694 21.371 -5.10667
lradius 16.1423
lwrist -9.22608
lhand -21.7513 11.8061
lfingers 7.12502
lthumb 4.6489 41.7351
rfemur 3.12853 16.6372 21.2099
rtibia 22.0337
rfoot -24.6931 -19.6552
rtoes -15.6221
lfemur -3.18747 -11.4974 -16.5807
ltibia 35.5119
lfoot -26.9625 11.4391
ltoes -15.3748
3685
root 1.34644 17.5516 0.232031 -1033.15 -86.357 -52.82
lowerback 7.748 -1.1031 3.28965
upperback -0.0270242 -1.20757 -0.580996
thorax -4.45789 -0.680807 -2.31392
lowerneck 1.69009 1.66316 -2.30724
upperneck 8.52318 2.07601 0.396718
head 2.36095 0.913378 0.545398
rclavicle -5.98839e-015 -3.18055e-015
rhumerus -18.3316 17.0108 -10.544
rradius 19.9501
rwrist -23.4048
rhand -18.9391 -0.465627
rfingers 7.12502
rthumb 7.36393 -30.3175
lclavicle -5.98839e-015 -3.18055e-015
lhumerus -21.6847 21.4454 -5.11388
lradius 16.1337
lwrist -9.3444
lhand -21.7481 11.7402
lfingers 7.12502
lthumb 4.652 41.6691
rfemur 3.11584 16.6465 21.21
rtibia 22.0361
rfoot -24.6853 -19.6559
rtoes -15.6223
lfemur -3.18795 -11.5347 -16.5896
ltibia 35.5085
lfoot -26.9649 11.4837
ltoes -15.3693
3686
root 1.34685 17.5523 0.232071 -1032.85 -86.3489 -53.1022
lowerback 7.73364 -1.10605 3.30633
upperback -0.0337871 -1.21023 -0.579095
thorax -4.45738 -0.682514 -2.32117
lowerneck 1.7038 1.66486 -2.32662
upperneck 8.50987 2.07699 0.412354
head 2.35378 0.913831 0.55337
rclavicle 2.95692e-015 -3.97569e-016
rhumerus -18.3221 16.9045 -10.5718
rradius 19.9573
rwrist -23.4606
rhand -19.1491 -0.331328
rfingers 7.12502
rthumb 7.16127 -30.1902
lclavicle 2.95692e-015 -3.97569e-016
lhumerus -21.6706 21.4122 -5.10528
lradius 16.1518
lwrist -9.33816
lhand -21.7428 11.6556
lfingers 7.12502
lthumb 4.6571 41.5844
rfemur 3.08766 16.6642 21.2255
rtibia 22.0392
rfoot -24.6841 -19.6666
rtoes -15.6209
lfemur -3.21079 -11.5306 -16.5653
ltibia 35.5061
lfoot -26.9606 11.4866
ltoes -15.3684
3687
root 1.34862 17.5518 0.23231 -1032.72 -86.3511 -53.238
lowerback 7.75187 -1.1038 3.31324
upperback -0.0306423 -1.20651 -0.588881
thorax -4.46448 -0.68103 -2.33545
lowerneck 1.66866 1.65755 -2.31383
upperneck 8.52952 2.06796 0.417259
head 2.36676 0.909726 0.553228
rclavicle 1.23246e-014 1.11319e-014
rhumerus -18.3317 16.7815 -10.6034
rradius 19.9879
rwrist -23.5528
rhand -19.3392 -0.230684
rfingers 7.12502
rthumb 6.97769 -30.0957
lclavicle 1.23246e-014 1.11319e-014
lhumerus -21.6252 21.3428 -5.07297
lradius 16.1778
lwrist -9.27018
lhand -21.7589 11.5848
lfingers 7.12502
lthumb 4.64156 41.5139
rfemur 3.07745 16.6696 21.2277
rtibia 22.0431
rfoot -24.6763 -19.666
rtoes -15.6217
lfemur -3.21332 -11.5241 -16.5594
ltibia 35.5017
lfoot -26.9526 11.4882
ltoes -15.3702
3688
root 1.34904 17.5519 0.231873 -1032.58 -86.3581 -53.3709
lowerback 7.75168 -1.10188 3.29887
upperback -0.0236745 -1.20505 -0.580121
thorax -4.45649 -0.679703 -2.31848
lowerneck 1.63497 1.65658 -2.34928
upperneck 8.5386 2.067 0.434358
head 2.37537 0.90864 0.565143
rclavicle 4.42296e-015 -1.55052e-014
rhumerus -18.3063 16.6176 -10.6035
rradius 20.0087
rwrist -23.5981
rhand -19.5831 -0.117651
rfingers 7.12502
rthumb 6.74231 -29.9903
lclavicle 4.42296e-015 -1.55052e-014
lhumerus -21.6169 21.514 -5.08577
lradius 16.1795
lwrist -9.49066
lhand -21.7842 11.557
lfingers 7.12502
lthumb 4.61718 41.4866
rfemur 3.06569 16.6294 21.2146
rtibia 22.0446
rfoot -24.6508 -19.6224
rtoes -15.6332
lfemur -3.21258 -11.5136 -16.5568
ltibia 35.4988
lfoot -26.952 11.4877
ltoes -15.3699
3689
root 1.34962 17.5521 0.231878 -1032.47 -86.3624 -53.4777
lowerback 7.75897 -1.10684 3.28891
upperback -0.0257263 -1.21207 -0.575741
thorax -4.46287 -0.683036 -2.30736
lowerneck 1.64625 1.66274 -2.36624
upperneck 8.52632 2.07478 0.438637
head 2.36899 0.912238 0.569241
rclavicle -1.11816e-015 1.98785e-015
rhumerus -18.2737 16.4711 -10.619
rradius 20.0361
rwrist -23.6485
rhand -19.8674 -0.015833
rfingers 7.12502
rthumb 6.46787 -29.8971
lclavicle -1.11816e-015 1.98785e-015
lhumerus -21.5965 21.5053 -5.0668
lradius 16.1912
lwrist -9.4912
lhand -21.8397 11.4941
lfingers 7.12502
lthumb 4.56353 41.425
rfemur 3.05768 16.6475 21.2178
rtibia 22.0513
rfoot -24.6535 -19.6317
rtoes -15.6314
lfemur -3.21198 -11.5203 -16.5585
ltibia 35.4941
lfoot -26.9493 11.5015
ltoes -15.3685
3690
root 1.35043 17.5524 0.231703 -1032.36 -86.3657 -53.5957
lowerback 7.76804 -1.10411 3.28861
upperback -0.0279558 -1.20849 -0.584403
thorax -4.47025 -0.681494 -2.31648
lowerneck 1.64768 1.64919 -2.32986
upperneck 8.52824 2.05811 0.411587
head 2.37016 0.904313 0.554252
rclavicle 3.45388e-015 7.15625e-015
rhumerus -18.2494 16.2238 -10.657
rradius 20.0245
rwrist -23.632
rhand -20.1939 0.0931698
rfingers 7.12502
rthumb 6.15259 -29.7975
lclavicle 3.45388e-015 7.15625e-015
lhumerus -21.5471 21.3861 -5.02015
lradius 16.2248
lwrist -9.40197
lhand -21.9321 11.4595
lfingers 7.12502
lthumb 4.47435 41.3923
rfemur 3.0515 16.6665 21.224
rtibia 22.0538
rfoot -24.6543 -19.6434
rtoes -15.6296
lfemur -3.2141 -11.5149 -16.5536
ltibia 35.491
lfoot -26.9364 11.5086
ltoes -15.4225
